<?xml version="1.0" encoding="UTF-8"?><svg id="Layer_1" xmlns="http://www.w3.org/2000/svg" viewBox="0 0 570.646 177.987"><g><path d="M226.829,5.426h0s8.768,.071,12.158-.036c2.254-.07,2.785-1.046,2.774-3.167-.014-2.45-1.51-2.162-3.022-2.162-11.066,.002-22.134,.068-33.199-.045-2.293-.023-2.894,.733-2.888,2.909,.005,2.18,1.161,2.424,2.845,2.524l14.15-.022c-14.418,42.047-28.981,84.596-43.233,126.161-.36-.009-.72-.016-1.08-.025-16.3-41.59-33.009-84.164-49.453-126.124l14.407,.007c1.469-.098,2.718-.106,2.839-2.227C143.268,.703,142.44-.011,139.936,0c-23.267,.106-46.535,.104-69.802,.106-22.416,.002-44.833-.014-67.25-.07C1.097,.031,.08,.308,.047,2.447c-.031,2.034,.572,2.909,2.677,2.976,4.529,.143,9.03-.129,13.559,.003,2.166,.063,2.946,.045,2.966,3.052,.038,5.957-.005,12.61-.005,18.569,.001,46.064-.03,92.127,.072,138.19,.007,3.003-.988,4.054-3.798,4.162-3.965,.154-13.66,.119-13.66,.119-2.476,0-2.458,5.791-.065,5.791,0,0,49.753,.12,74.626-.145,14.165-.152,27.726-3.326,39.989-10.726,12.961-7.823,20.092-19.409,20.825-34.565,.269-5.57-.427-11.187-.717-17.539,3.391,8.492,6.535,16.424,9.726,24.337,5.242,13.001,10.552,25.975,15.727,39.002,.683,1.718,1.622,2.323,3.351,2.313,1.667-.009,2.441,0,3.355-2.217L226.829,5.426ZM53.719,6.737c7.929-.648,15.766-1.051,23.553,1.374,9.213,2.869,15.409,8.902,18.129,17.897,3.758,12.432,3.155,24.749-3.143,36.466-3.678,6.842-9.736,10.667-16.816,12.857-7.279,2.252-14.825,2.558-22.417,1.718-1.961-.217-2.796-.929-2.782-3.002,.074-10.672,.034-21.345,.034-32.017h-.118c0-10.391,.073-20.782-.05-31.171-.032-2.717,.799-3.894,3.609-4.123Zm50.391,131.846c-2.366,11.334-8.253,20.157-18.66,25.622-10.695,5.617-22.054,5.942-33.643,3.89-.652-.118-1.447-1.062-1.636-1.768-.285-1.062-.103-2.252-.103-3.386-.002-23.453-.002-43.475-.002-66.927,0-2.624-.453-10.446,2.79-11.687,5.766-2.207,28.544-1.262,40.957,10.37,6.515,6.104,9.579,14.04,10.92,22.799,1.088,7.104,.835,14.103-.623,21.087Zm28.317-34.568c-11.991-19.684-31.586-23.433-52.267-25.115,13.278-2.444,25.559-6.755,36.8-15.12,5.441,13.537,10.708,26.64,15.976,39.745-.169,.162-.339,.326-.509,.49Z" style="fill:#44546b; fill-rule:evenodd;"/><g><path d="M235.598,87.909c2.553-.063,5.447-.135,8.656-.135,1.351,0,3.559,.043,6.015,.091,3.078,.059,6.566,.127,9.239,.127,.229,0,.496,.004,.796,.009,.397,.006,.853,.013,1.362,.013,1.921,0,7.768,0,14.098-2.685,8.016-3.383,12.253-9.306,12.253-17.13,0-4.735-1.674-7.869-2.937-9.823-4.398-6.548-10.541-8.751-19.414-9.796,5.749-1.708,15.596-5.786,15.596-16.008,0-5.097-3.335-12.162-12.734-15.294-1.744-.582-5.972-1.557-14.686-1.557-1.753,0-3.475,.055-5.141,.109-1.655,.054-3.368,.109-5.101,.109-2.481,0-5.044-.056-8.289-.127l-4.967-.103v3.632l.605,.012c5.196,.106,8.873,.679,8.873,7.118v48.811c0,8.123-2.567,8.974-8.871,9.079l-.607,.01v3.622h.618c1.243,0,2.815-.039,4.636-.083Zm14.831-40.594V20.162c2.633-.265,4.608-.265,5.483-.265,1.662,0,7.352,.24,10.814,3.332,2.247,1.977,3.386,5.01,3.386,9.015,0,5.729-1.945,9.876-5.949,12.678-2.81,1.978-6.705,2.372-13.735,2.392Zm26.329,21.647c0,10.261-8.117,14.854-16.161,14.854-6.938,0-10.168-2.227-10.168-7.009v-25.338l.456-.018c2.32-.094,4.324-.175,5.354-.175,7.705,0,11.387,1.641,13.723,3.063,4.669,2.98,6.796,9.669,6.796,14.623Z"/><path d="M318.64,87.993h.618v-3.633h-3.778c-6.791,0-6.791-1.19-6.791-4.72v-22.771c0-2.471,2.743-7.009,7.227-7.009,1.327,0,1.962,.086,3.373,.993,1.193,.76,1.866,1.077,2.946,1.077,3.186,0,5.412-2.449,5.412-5.956,0-3.221-2.082-5.302-5.304-5.302-6.232,0-10.412,4.511-13.654,9.333v-8.606c0-.893-.599-1.815-1.599-1.815-.227,0-.537,0-3.57,1.822-4.471,2.507-6.504,3.468-8.888,4.552l-.362,.165v2.053l.299,.181c4.7,2.843,4.931,3.124,4.931,6.008v27.565c0,2.258-2.77,2.433-6.682,2.433h-.618v3.679l.662-.047c1.456-.104,5.677-.217,11.506-.217,3.554,0,7.664,.089,10.665,.154,1.674,.037,2.978,.064,3.607,.064Z"/><path d="M338.829,49.138v26.906c0,7.986,4.776,13.146,12.168,13.146,6.171,0,11.497-2.949,17.903-7.762v7.653s1.688,.023,2.252,0c3.459-.14,13.802-1.124,13.802-1.124v-3.85l-5.896-.008c-.924,0-.969-.429-.969-1.002l.109-41.26c0-1.864-.933-2.143-1.489-2.143-.572,0-4.951,.582-10.618,1.343-2.218,.298-4.079,.548-4.707,.622l-.546,.064v2.866l.445,.129s7.616-.371,7.616,4.359v27.813c-3.69,3.975-8.029,6.16-12.238,6.16-5.574,0-8.644-3.457-8.644-9.732v-31.372c0-1.356,0-2.252-1.488-2.252-.037,0-.367,.031-.825,.078-.848,.087-2.427,.249-2.771,.249l-.146,.018c-.423,.093-4.787,.418-8.912,.526l-.602,.016v3.185l.504,.095c1.64,.307,5.052,.947,5.052,5.276Z"/><path d="M402.09,87.775c4.642,0,8.811,.109,10.531,.217l.657,.041v-3.673h-.618c-5.921,0-5.921-.398-5.921-5.266V41.288c0-1.382-.891-1.49-1.163-1.49-.648,0-.921,.121-2.695,.91l-.273,.121c-3.009,1.304-5.799,2.273-9.949,3.46l-.448,.128v2.612l.369,.162c3.112,1.374,4.97,3.484,4.97,5.645v28.11c0,3.334-.447,3.413-6.354,3.413h-.618v3.676l.659-.044c1.564-.104,6.3-.217,10.853-.217Z"/><path d="M467.445,87.872c2.084,.031,3.883,.059,4.864,.12l.657,.041v-3.673h-.618c-4.57,0-5.048,0-5.048-3.304v-26.911c0-7.934-5.183-13.474-12.602-13.474-5.938,0-10.79,2.75-17.796,7.319v-7.138c0-.772-.456-1.271-1.161-1.271h-.116c-.42-.001-1.187,.098-2.969,.944l-10.275,4.071v2.29l.295,.181c4.143,2.549,5.037,3.651,5.037,6.204v28.219c0,2.542,0,2.869-6.136,2.869h-.618v3.668l.652-.037c1.889-.105,6.261-.217,10.644-.217,4.452,0,8.862,.112,10.751,.217l.652,.037v-3.668h-.618c-5.791,0-6.138,0-6.138-5.266v-27.379c1.684-1.356,6.077-4.689,12.239-4.689,7.444,0,8.97,4.588,8.97,11.476v22.989c0,2.508-.358,2.869-5.81,2.869h-.618v3.67l.654-.039c1.782-.105,5.889-.217,9.971-.217,1.775,.046,3.551,.073,5.137,.097Z"/><path d="M273.758,101.019h.618v-3.634h-.618c-.929,0-2.113,.04-3.478,.085-1.881,.063-4.014,.134-6.327,.134-2.365,0-4.839-.07-7.022-.133-1.603-.046-3.001-.086-3.982-.086h-.618v3.634h.618c3.466,0,7.445,.425,7.445,3.74,0,2.08-.792,4.38-1.09,5.245l-16.815,44.437-17.503-46.186c-.546-1.528-1.272-3.734-1.272-5.239,0-1.816,1.808-1.997,6.247-1.997h.618v-3.634h-.618c-.629,0-1.71,.028-3.096,.065-2.481,.064-5.88,.153-9.434,.153-3.21,0-6.528-.076-9.194-.139-1.874-.043-3.46-.08-4.534-.08h-.618v3.634h.618c4.181,0,7.203,0,11.08,10.061l22.16,58.361h5.097l23.904-60.749c3.068-7.674,5.812-7.674,7.815-7.674Z"/><path d="M300.297,157.154c-2.173,2.066-6.692,6.365-13.404,6.365-1.863,0-6.608-.431-10.417-4.42-3.769-3.947-5.525-10.225-5.222-18.662h.013c2.811-.101,5.465-.195,9.635-.195,1.328,0,5.152,.103,9.201,.211,4.109,.11,8.358,.225,9.866,.225,1.561,0,2.143-.788,2.143-2.906,0-9.662-8.9-15.435-17.505-15.435-10.897,0-22.625,7.933-22.625,25.35,0,18.291,13.263,23.172,21.1,23.172,10.52,0,16.244-7.311,19.663-11.678l.352-.448-2.261-2.087-.536,.51Zm-16.672-31.184c5.235,0,8.752,3.297,8.752,8.205,0,2.215-.652,2.215-1.344,2.215h-19.664c2.079-6.916,6.199-10.42,12.256-10.42Z"/><path d="M353.114,162.722v-26.911c0-7.934-5.183-13.475-12.602-13.475-5.939,0-10.791,2.75-17.796,7.32v-7.138c0-.772-.456-1.272-1.162-1.272-.346,0-.465,.057-2.461,1.003l-.305,.144c-5.807,2.695-7.417,3.299-9.854,4.211l-.746,.28v1.953l.073,.391,.295,.181c4.264,2.623,4.971,3.126,4.971,5.529v28.219c0,2.542,0,2.868-6.137,2.868h-.618v3.669l.652-.036c1.885-.105,6.255-.217,10.643-.217,4.459,0,8.867,.111,10.752,.217l.652,.036v-3.669h-.618c-5.791,0-6.138,0-6.138-5.266v-27.379c1.684-1.357,6.081-4.689,12.239-4.689,7.444,0,8.969,4.587,8.969,11.476v22.989c0,2.508-.358,2.868-5.81,2.868h-.618v3.671l.654-.038c1.779-.105,5.885-.217,9.972-.218,1.771,.047,3.543,.073,5.127,.097,2.087,.031,3.891,.059,4.873,.12l.657,.042v-3.674h-.618c-4.569,0-5.047,0-5.047-3.304Z"/><path d="M375.877,122.396c.026-.674,.051-1.312,.049-1.693,.106-1.798,.221-4.561,.221-5.811v-.618h-2.458l-.185,.255c-3.306,4.546-5.777,7.336-12.529,12.851l-.228,.186v2.327h6.304c-.213,8.418-.42,27.912-.42,28.035,0,4.197,0,12.931,10.968,12.931,4.81,0,8.97-2.035,13.088-6.404l.357-.379-1.627-2.169-.808,.485c-1.544,.936-3.66,2.218-6.544,2.218-5.504,0-6.245-5.524-6.245-10.93v-23.787h15.58v-6.03h-15.572c.012-.457,.031-.971,.05-1.466Z"/><path d="M442.49,165.174c-.383,0-.497-.06-.505-.06-.006-.011-.034-.079-.034-.321l.111-39.66c0-1.864-.935-2.143-1.491-2.143-.568,0-4.925,.579-10.559,1.337-2.242,.301-4.131,.555-4.765,.629l-.546,.063v2.866l.446,.129c3.185,.926,4.74,1.57,7.565,2.74l.05,.021v27.782c-3.69,3.975-8.027,6.161-12.237,6.161-5.574,0-8.644-3.456-8.644-9.733v-29.744c0-1.355,0-2.252-1.489-2.252-.037,0-.367,.031-.823,.078-.849,.087-2.428,.249-2.772,.249l-.147,.018c-.424,.095-4.79,.42-8.913,.528l-.602,.016v3.184l.504,.095c1.64,.308,5.052,.948,5.052,5.276v25.277c0,7.986,4.776,13.147,12.168,13.147,6.173,0,11.498-2.949,17.903-7.763v7.653h2.253c1.153,0,2.656-.392,3.981-.736,.535-.139,1.043-.271,1.475-.364l8.346-1.623v-3.114l-5.896,.245c-.159,.013-.303,.019-.43,.019Z"/><path d="M483.727,122.336c-6.229,0-10.41,4.511-13.653,9.332v-8.605c0-.892-.599-1.816-1.599-1.816-.237,0-.532,0-3.572,1.822-4.465,2.506-6.5,3.468-8.887,4.553l-.362,.165v2.054l.299,.18c4.701,2.845,4.932,3.125,4.932,6.008v27.565c0,2.259-2.77,2.433-6.683,2.433h-.618v3.68l.662-.048c1.452-.104,5.672-.216,11.505-.216,3.555,0,7.665,.088,10.666,.153,1.674,.036,2.979,.064,3.608,.064h.618v-3.634h-3.778c-6.79,0-6.79-1.189-6.79-4.721v-22.77c0-2.471,2.743-7.009,7.226-7.009,1.328,0,1.963,.085,3.373,.993,1.192,.759,1.865,1.077,2.947,1.077,3.185,0,5.411-2.45,5.411-5.957,0-3.221-2.082-5.303-5.304-5.303Z"/><path d="M528.965,157.15c-2.172,2.068-6.691,6.37-13.408,6.37-1.863,0-6.609-.431-10.419-4.42-3.77-3.948-5.524-10.225-5.222-18.662h.014c2.81-.101,5.465-.195,9.635-.195,1.327,0,5.15,.103,9.199,.211,4.11,.11,8.359,.225,9.867,.225,1.562,0,2.144-.788,2.144-2.906,0-9.662-8.901-15.435-17.507-15.435-10.897,0-22.626,7.933-22.626,25.35,0,18.291,13.264,23.172,21.101,23.172,10.524,0,16.244-7.311,19.662-11.678l.351-.448-2.259-2.087-.531,.505Zm-16.678-31.18c5.235,0,8.753,3.297,8.753,8.205,0,2.215-.653,2.215-1.345,2.215h-19.664c2.082-6.916,6.202-10.42,12.256-10.42Z"/><path d="M556.85,141.445c-7.055-2.721-10.063-5.383-10.063-8.903,0-3.685,3.535-6.682,7.88-6.682,1.928,0,8.358,.671,10.183,9.315l.104,.49h3.339l-.723-10.976-.379-.138c-3.932-1.429-8.108-2.216-11.762-2.216-9.601,0-16.306,5.676-16.306,13.802,0,7.987,6.522,11.698,13.575,14.52,8.005,3.119,9.522,5.573,9.522,9.013,0,4.391-3.228,7.118-8.425,7.118-8.771,0-11.259-7.66-12.596-11.775l-.204-.628-2.685,1.073,.053,.468c.527,4.652,.7,6.539,.919,8.928l.201,2.182,.298,.155c2.455,1.281,7.025,3.666,13.47,3.666,10.079,0,17.395-6.217,17.395-14.781,0-6.579-3.866-10.681-13.796-14.632Z"/></g></g><path d="M401.982,21.085c-2.983,0-5.411,2.378-5.411,5.302s2.479,5.412,5.411,5.412,5.304-2.428,5.304-5.412-2.33-5.302-5.304-5.302Z" style="fill:#444142;"/><g><path d="M266.726,23.23c-3.462-3.092-9.152-3.332-10.814-3.332-.875,0-2.85,0-5.483,.265v27.153c7.03-.02,10.925-.414,13.735-2.392,4.003-2.802,5.949-6.949,5.949-12.678,0-4.005-1.139-7.038-3.386-9.015Z" style="fill:none;"/><path d="M77.273,8.112c-7.788-2.426-15.624-2.022-23.553-1.374-2.81,.229-3.641,1.407-3.609,4.123,.123,10.39,.05,20.781,.05,31.171h.118c0,10.672,.039,21.345-.034,32.017-.014,2.073,.82,2.785,2.782,3.002,7.592,.839,15.138,.534,22.417-1.718,7.08-2.19,13.138-6.015,16.816-12.857,6.298-11.717,6.901-24.034,3.143-36.466-2.72-8.995-8.915-15.028-18.129-17.897Z" style="fill:none;"/><path d="M140.286,5.445c1.469-.098,2.718-.106,2.839-2.227C143.268,.703,142.44-.011,139.936,0c-23.267,.106-46.535,.104-69.802,.106-22.416,.002-44.833-.014-67.25-.07C1.097,.031,.08,.308,.047,2.447c-.031,2.034,.572,2.909,2.677,2.976,4.529,.143,9.03-.129,13.559,.003,2.166,.063,2.946,.045,2.966,3.052,.038,5.957-.005,12.61-.005,18.569,0,29.202,.001,58.403,.018,87.604,9.69-2.862,19.953-5.726,30.803-8.56v-10.077c0-2.624-.453-10.446,2.79-11.687,5.766-2.207,28.544-1.262,40.957,10.37,.256,.24,.498,.488,.744,.734,8.114-1.778,16.495-3.527,25.137-5.24-11.166-7.924-25.082-10.116-39.533-11.292,13.278-2.444,25.559-6.755,36.8-15.12,3.402,8.465,6.734,16.752,10.043,24.984,9.504-1.829,19.32-3.612,29.455-5.339-10.188-25.979-20.434-52.1-30.58-77.987l14.407,.007Zm-48.028,57.03c-3.678,6.842-9.736,10.667-16.816,12.857-7.279,2.252-14.825,2.558-22.417,1.718-1.961-.217-2.796-.929-2.782-3.002,.074-10.672,.034-21.345,.034-32.017h-.118c0-10.391,.073-20.782-.05-31.171-.032-2.717,.799-3.894,3.609-4.123,7.929-.648,15.766-1.051,23.553,1.374,9.213,2.869,15.409,8.902,18.129,17.897,3.758,12.432,3.155,24.749-3.143,36.466Z" style="fill:#64768c;"/><path d="M238.987,5.39c2.254-.07,2.785-1.046,2.774-3.167-.014-2.45-1.51-2.162-3.022-2.162-11.066,.002-22.134,.068-33.199-.045-2.293-.023-2.894,.733-2.888,2.909,.005,2.18,1.161,2.424,2.845,2.524l14.15-.022c-8.2,23.913-16.445,47.984-24.655,71.949,2.531-.365,5.079-.726,7.645-1.082L226.829,5.426s8.768,.071,12.158-.036Z" style="fill:#64768c;"/><path d="M265.666,48.58c5.749-1.708,15.596-5.786,15.596-16.008,0-5.097-3.335-12.162-12.734-15.294-1.744-.582-5.972-1.557-14.686-1.557-1.753,0-3.475,.055-5.141,.109-1.655,.054-3.368,.109-5.101,.109-2.481,0-5.044-.056-8.289-.127l-4.967-.103v3.632l.605,.012c5.196,.106,8.873,.679,8.873,7.118v45.07c3.503-.408,7.044-.807,10.606-1.2v-18.871l.456-.018c2.32-.094,4.324-.175,5.354-.175,7.705,0,11.387,1.641,13.723,3.063,4.264,2.721,6.401,8.531,6.742,13.292,3.716-.356,7.467-.703,11.244-1.042-.323-3.846-1.753-6.49-2.867-8.213-4.398-6.548-10.541-8.751-19.414-9.796Zm-1.502-3.657c-2.81,1.978-6.705,2.372-13.735,2.392V20.162c2.633-.265,4.608-.265,5.483-.265,1.662,0,7.352,.24,10.814,3.332,2.247,1.977,3.386,5.01,3.386,9.015,0,5.729-1.945,9.876-5.949,12.678Z" style="fill:#444142;"/><path d="M315.916,49.86c1.327,0,1.962,.086,3.373,.993,1.193,.76,1.866,1.077,2.946,1.077,3.186,0,5.412-2.449,5.412-5.956,0-3.221-2.082-5.302-5.304-5.302-6.232,0-10.412,4.511-13.654,9.333v-8.606c0-.893-.599-1.815-1.599-1.815-.227,0-.537,0-3.57,1.822-4.471,2.507-6.504,3.468-8.888,4.552l-.362,.165v2.053l.299,.181c4.7,2.843,4.931,3.124,4.931,6.008v11.224c3.044-.255,6.107-.504,9.189-.748v-7.97c0-2.471,2.743-7.009,7.227-7.009Z" style="fill:#444142;"/><path d="M376.709,39.696c-.572,0-4.951,.582-10.618,1.343-2.218,.298-4.079,.548-4.707,.622l-.546,.064v2.866l.445,.129s7.616-.371,7.616,4.359v11.885c3.065-.153,6.15-.301,9.249-.443l.05-18.683c0-1.864-.933-2.143-1.489-2.143Z" style="fill:#444142;"/><path d="M346.53,39.696c-.037,0-.367,.031-.825,.078-.848,.087-2.427,.249-2.771,.249l-.146,.018c-.423,.093-4.787,.418-8.912,.526l-.602,.016v3.185l.504,.095c1.64,.307,5.052,.947,5.052,5.276v13.542c3.045-.195,6.109-.384,9.189-.569v-20.164c0-1.356,0-2.252-1.488-2.252Z" style="fill:#444142;"/><path d="M405.577,39.799c-.648,0-.921,.121-2.695,.91l-.273,.121c-3.009,1.304-5.799,2.273-9.949,3.46l-.448,.128v2.612l.369,.162c3.112,1.374,4.97,3.484,4.97,5.645v6.877c3.048-.114,6.109-.223,9.19-.326v-18.1c0-1.382-.891-1.49-1.163-1.49Z" style="fill:#444142;"/><path d="M454.698,40.671c-5.938,0-10.79,2.75-17.796,7.319v-7.138c0-.772-.456-1.271-1.161-1.271h-.116c-.42-.001-1.187,.098-2.969,.944l-10.275,4.071v2.29l.295,.181c4.143,2.549,5.037,3.651,5.037,6.204v5.509c3.051-.075,6.108-.147,9.189-.21v-6.855c1.684-1.356,6.077-4.689,12.239-4.689,7.342,0,8.924,4.467,8.966,11.198,3.048-.037,6.117-.065,9.193-.091v-3.988c0-7.934-5.183-13.474-12.602-13.474Z" style="fill:#444142;"/></g></svg>