<?xml version="1.0" encoding="UTF-8"?><svg id="Layer_1" xmlns="http://www.w3.org/2000/svg" viewBox="0 0 435.136 107.038"><path d="M117.003,2.799h0s4.522,.037,6.271-.019c1.163-.036,1.437-.539,1.431-1.634-.007-1.264-.779-1.115-1.559-1.115-5.708,.001-11.417,.035-17.125-.023-1.183-.012-1.493,.378-1.49,1.501,.003,1.125,.599,1.25,1.467,1.302l7.299-.011c-7.437,21.689-14.949,43.637-22.301,65.076-.186-.004-.371-.008-.557-.013-8.408-21.453-17.027-43.413-25.509-65.058l7.431,.004c.758-.05,1.402-.055,1.464-1.149C73.901,.363,73.473-.005,72.182,0c-12.002,.055-24.004,.054-36.005,.055-11.563,0-23.126-.007-34.689-.036C.566,.016,.041,.159,.024,1.262c-.016,1.049,.295,1.501,1.381,1.535,2.336,.074,4.658-.066,6.994,.001,1.117,.033,1.52,.023,1.53,1.574,.02,3.073-.003,6.505-.003,9.578,0,23.761-.016,47.521,.037,71.281,.004,1.549-.51,2.091-1.959,2.147-2.045,.08-7.046,.061-7.046,.061-1.277,0-1.268,2.987-.033,2.987,0,0,25.664,.062,38.494-.075,7.307-.079,14.302-1.716,20.627-5.532,6.686-4.035,10.364-10.012,10.742-17.83,.139-2.873-.22-5.771-.37-9.047,1.749,4.38,3.371,8.472,5.017,12.554,2.704,6.706,5.443,13.398,8.112,20.118,.352,.886,.837,1.198,1.729,1.193,.86-.005,1.259,0,1.731-1.143L117.003,2.799ZM27.71,3.475c4.09-.334,8.132-.542,12.149,.709,4.752,1.48,7.948,4.592,9.351,9.232,1.939,6.413,1.628,12.766-1.621,18.81-1.897,3.529-5.022,5.502-8.674,6.632-3.755,1.162-7.647,1.319-11.563,.886-1.012-.112-1.442-.479-1.435-1.548,.038-5.505,.018-11.01,.018-16.515h-.061c0-5.36,.038-10.72-.026-16.079-.016-1.401,.412-2.009,1.862-2.127Zm25.993,68.009c-1.22,5.846-4.257,10.398-9.625,13.216-5.517,2.897-11.376,3.065-17.354,2.006-.336-.061-.747-.548-.844-.912-.147-.548-.053-1.162-.053-1.746,0-12.098,0-22.425,0-34.522,0-1.354-.234-5.388,1.439-6.029,2.974-1.139,14.724-.651,21.126,5.349,3.36,3.149,4.941,7.242,5.633,11.76,.561,3.665,.431,7.274-.321,10.877Zm14.607-17.831c-6.185-10.153-16.293-12.087-26.96-12.955,6.849-1.261,13.184-3.484,18.982-7.799,2.807,6.983,5.524,13.741,8.241,20.501-.087,.084-.175,.168-.262,.253Z" style="fill:#fff; fill-rule:evenodd;"/><text transform="translate(112.561 73.594)" style="fill:#fff; font-family:Athelas-Regular, Athelas; font-size:82.374px;"><tspan x="0" y="0">A</tspan><tspan x="56.591" y="0" style="letter-spacing:-.05em;">L</tspan><tspan x="98.438" y="0">UMNI</tspan></text></svg>